<svg width="35" height="35" viewBox="0 0 35 35" fill="none" xmlns="http://www.w3.org/2000/svg">
<path d="M18.3247 17.5513L27.7989 8.07714C28.0124 7.86358 28.0124 7.51734 27.7989 7.30379C27.5853 7.09023 27.2391 7.09023 27.0255 7.30379L17.5513 16.7779L8.07719 7.30372C7.86364 7.09017 7.5174 7.09017 7.30384 7.30372C7.09022 7.51728 7.09022 7.86352 7.30384 8.07707L16.7779 17.5513L7.30377 27.0254C7.09015 27.239 7.09015 27.5852 7.30377 27.7988C7.41055 27.9056 7.55048 27.959 7.69048 27.959C7.83048 27.959 7.97041 27.9056 8.07719 27.7988L17.5513 18.3247L27.0255 27.7988C27.1323 27.9056 27.2722 27.959 27.4122 27.959C27.5522 27.959 27.6921 27.9056 27.7989 27.7988C28.0124 27.5852 28.0124 27.239 27.7989 27.0254L18.3247 17.5513Z" fill="white" stroke="white"/>
</svg>
