<svg width="15" height="15" viewBox="0 0 15 15" fill="none" xmlns="http://www.w3.org/2000/svg">
<path fill-rule="evenodd" clip-rule="evenodd" d="M11.5601 3.57901L8.07696 7.06213L11.5601 10.5452C11.8403 10.8255 11.8403 11.2798 11.5601 11.5601C11.2798 11.8403 10.8255 11.8403 10.5452 11.5601L7.06213 8.07696L3.57901 11.5601C3.29878 11.8403 2.84442 11.8403 2.56418 11.5601C2.28394 11.2798 2.28394 10.8255 2.56418 10.5452L6.04729 7.06213L2.56418 3.57901C2.28394 3.29878 2.28394 2.84442 2.56418 2.56418C2.84442 2.28394 3.29878 2.28394 3.57901 2.56418L7.06213 6.04729L10.5452 2.56418C10.8255 2.28394 11.2798 2.28394 11.5601 2.56418C11.8403 2.84442 11.8403 3.29878 11.5601 3.57901Z" fill="#212426"/>
<mask id="mask0" mask-type="alpha" maskUnits="userSpaceOnUse" x="2" y="2" width="10" height="10">
<path fill-rule="evenodd" clip-rule="evenodd" d="M11.5601 3.57901L8.07696 7.06213L11.5601 10.5452C11.8403 10.8255 11.8403 11.2798 11.5601 11.5601C11.2798 11.8403 10.8255 11.8403 10.5452 11.5601L7.06213 8.07696L3.57901 11.5601C3.29878 11.8403 2.84442 11.8403 2.56418 11.5601C2.28394 11.2798 2.28394 10.8255 2.56418 10.5452L6.04729 7.06213L2.56418 3.57901C2.28394 3.29878 2.28394 2.84442 2.56418 2.56418C2.84442 2.28394 3.29878 2.28394 3.57901 2.56418L7.06213 6.04729L10.5452 2.56418C10.8255 2.28394 11.2798 2.28394 11.5601 2.56418C11.8403 2.84442 11.8403 3.29878 11.5601 3.57901Z" fill="white"/>
</mask>
<g mask="url(#mask0)">
</g>
</svg>
