<svg width="23" height="23" viewBox="0 0 23 23" fill="none" xmlns="http://www.w3.org/2000/svg">
<g clip-path="url(#clip0)">
<path d="M8.5375 0H1.42292C0.636755 0 0 0.636755 0 1.42292V8.5375C0 9.32295 0.636755 9.96042 1.42292 9.96042H8.5375C9.32366 9.96042 9.96042 9.32295 9.96042 8.5375V1.42292C9.96042 0.636755 9.32366 0 8.5375 0ZM8.5375 8.5375H1.42292V1.42292H8.5375V8.5375Z" fill="white"/>
<path d="M21.3438 0H14.2292C13.443 0 12.8063 0.636755 12.8063 1.42292V8.5375C12.8063 9.32295 13.443 9.96042 14.2292 9.96042H21.3438C22.1292 9.96042 22.7667 9.32295 22.7667 8.5375V1.42292C22.7667 0.636755 22.1292 0 21.3438 0ZM21.3438 8.5375H14.2292V1.42292H21.3438V8.5375Z" fill="white"/>
<path d="M21.3438 12.8062H14.2292C13.443 12.8062 12.8063 13.4437 12.8063 14.2292V21.3437C12.8063 22.1299 13.443 22.7667 14.2292 22.7667H21.3438C22.1292 22.7667 22.7667 22.1299 22.7667 21.3437V14.2292C22.7667 13.443 22.1292 12.8062 21.3438 12.8062ZM21.3438 21.3437H14.2292V14.2292H21.3438V21.3437Z" fill="white"/>
<path d="M8.5375 12.8062H1.42292C0.636755 12.8062 0 13.4437 0 14.2292V21.3437C0 22.1299 0.636755 22.7667 1.42292 22.7667H8.5375C9.32366 22.7667 9.96042 22.1299 9.96042 21.3437V14.2292C9.96042 13.443 9.32366 12.8062 8.5375 12.8062ZM8.5375 21.3437H1.42292V14.2292H8.5375V21.3437Z" fill="white"/>
</g>
<defs>
<clipPath id="clip0">
<rect width="22.7667" height="22.7667" fill="white"/>
</clipPath>
</defs>
</svg>
