<svg width="35" height="35" viewBox="0 0 35 35" fill="none" xmlns="http://www.w3.org/2000/svg">
<path d="M1.09375 13.8542H33.9062C34.51 13.8542 35 13.3642 35 12.7604C35 12.1567 34.51 11.6667 33.9062 11.6667H1.09375C0.49 11.6667 0 12.1567 0 12.7604C0 13.3642 0.49 13.8542 1.09375 13.8542Z" fill="white"/>
<path d="M33.9062 22H1.09375C0.49 22 0 22.49 0 23.0938C0 23.6975 0.49 24.1875 1.09375 24.1875H33.9062C34.51 24.1875 35 23.6975 35 23.0938C35 22.49 34.51 22 33.9062 22Z" fill="white"/>
<path d="M33.9062 31.5417H12.0312C11.4275 31.5417 10.9375 32.0317 10.9375 32.6354C10.9375 33.2392 11.4275 33.7292 12.0312 33.7292H33.9062C34.51 33.7292 35 33.2392 35 32.6354C35 32.0317 34.51 31.5417 33.9062 31.5417Z" fill="white"/>
</svg>
