<svg width="38" height="38" viewBox="0 0 38 38" fill="none" xmlns="http://www.w3.org/2000/svg">
<path fill-rule="evenodd" clip-rule="evenodd" d="M23.036 24.2217C21.3879 25.396 19.3714 26.0868 17.1936 26.0868C11.6271 26.0868 7.11456 21.5742 7.11456 16.0078C7.11456 10.4413 11.6271 5.92877 17.1936 5.92877C22.76 5.92877 27.2726 10.4413 27.2726 16.0078C27.2726 18.791 26.1444 21.3108 24.3205 23.1347L31.4319 30.2461C31.7581 30.5723 31.7502 31.0953 31.4227 31.4227C31.093 31.7524 30.5685 31.7543 30.2462 31.4319L23.036 24.2217ZM17.1936 24.901C22.1052 24.901 26.0868 20.9194 26.0868 16.0078C26.0868 11.0962 22.1052 7.11454 17.1936 7.11454C12.282 7.11454 8.30033 11.0962 8.30033 16.0078C8.30033 20.9194 12.282 24.901 17.1936 24.901Z" fill="white"/>
</svg>
